<mxfile host="65bd71144e" pages="1">
    <diagram id="6itaSXMCU1YtvEYhpMld" name="Page-1">
        <mxGraphModel dx="346" dy="451" grid="1" gridSize="10" guides="1" tooltips="1" connect="0" arrows="1" fold="1" page="1" pageScale="1" pageWidth="827" pageHeight="1169" math="0" shadow="0">
            <root>
                <mxCell id="0"/>
                <mxCell id="1" parent="0"/>
                <mxCell id="76" value="" style="group" parent="1" vertex="1" connectable="0">
                    <mxGeometry width="100" height="100" as="geometry"/>
                </mxCell>
                <mxCell id="74" value="" style="shape=image;verticalLabelPosition=bottom;labelBackgroundColor=default;verticalAlign=top;aspect=fixed;imageAspect=0;image=data:image/png,iVBORw0KGgoAAAANSUhEUgAAAGQAAABkCAYAAABw4pVUAAAbRklEQVR4nO2dW48tS1LffxGRWbW6z5lhBn8dG4MY2+BBRki2/A42F4/RAAZfRjzwBPgC9oCGGSyDEZZf/BUsy5L9dWyYYV96VWVmhB8iq1bvMzMP+HTvc47okPbu3atX16rKyIzLP/4RG17kRV7kRV7kRV7kRV7kRV7kRV7kRV7kRV7kRV7kRf4qyjd+6cvx7//J34pP+j6eSuSTvoH/X/kPX/k7cbeu7G0nHFrvBMGv/uH/+Mw+E3wGFfJvf/aHA0Cl8MH9HXtrSMDeO8GgWOG6XfmXf/S/P3PPBqCf9A38ZeTr//THQsQQMdJGBSJCGwNBkPk47vC7P/cjn0kz9pnYRb/1Mz8UtSwsteSJmLf9g1/4PH/x+g0RgYrQe0dUuW5X1roAAir8yjf/+2fiOeEzoJDf/Om/ERGwLCuXpXLdd0oxwoMvfuFzfPs7rzBVehs4+UBbu/Lh3YXheQ33jofwa//xf37qn/dTe4O//4t/Ny73F/78z/4vYziXywUVZe+NtS7srfHXvvh5vv3qNTrPTOtOLcqbhwc+vFvpnuYr6ICy987X/uh/fWqfGT6FCvnNn/6hkGJ87nJPKcbrN6/obWC1crcsNB9UM67bzg9+8fO8efMA4bS2gxSKKa03ajF6DxyI6JhURnREDBXlV7716TRjnyqn/lv/6IcCwNC8MxVUClaVYkKpyt1aKSag4OEgEASIYCYgICgqgplOZy/IvFYfjaLwe5/S3OVTsUv+zc/+SOx9YAIRUEvl7nKhrJVXf/EaEwEJ7u9XCGjNue5XvviFz7M9bLg7vTcCo5pSTHGBh+sVxXDAVHHvRDhLWYGgjwCCX/kU5S6f+An57X/8w0HAYkqI5E5XkAKCE3RqEdwHxDwVBAJ5CopS1AgpqObJESsQucZmigLhThCEB304AXTfAfjWV38sfvfnf/RTcWI+sZ3xr3/mb8ZSKpv3aZ0MjwFAKYW7uxUz5TvfeUW1Cgwu9xdGczxg9J3P/8Dn2B42QGi9k/oUTAvDneveWNeFtu9EOMMH7sFS1zyKgIlSl9yXrTtf/YNP1rd8Iifkd37+S4F4mhIRRKCYICI4UFTnrQmDQCQXjsh1FIFaKzEGHtDHQDV/TjBTRDnzFdNIPxOBKkRkIjnCUU1FiChb2/jWL/9EfOurP/6JnZb3qpA/+OqX4+tf+VKoQO+BKbSep0I0F9sE1BRwxggWnbvXj9dzrTymaZrZekwHv6wVq6k0omPh+Ahad/YWqBaEDBJUFDEoxQAhRiAxsKp865d+7BNRyntTyL/7uR+Nw6R45FcRgYDeB6ggEphWUMGmIiICNaGWVEaQypNHfiTfCMPnKZivxTRLfXS2vSOPntZ0Ov+Rv2xF855U6FsHVX7vKz8af/SrX36vinkvCvmdX/hSIDKXU6m1gMLeM5VWzd0JgkpgmguqAqZlKg+qVlQCGWliPLO+afbSQA3PkyPTBI5I/+7DqSqoGCZCd0ccwgOVPDG7T4RM5sJEHAfyvcl7UUgxRSCTNAIfPfMFCWrNn6nm1yAXCabZcZCI27qk3hCB4R0nkJIK7J6puYhkxHW4Z2e+puclRkCPDvPfwu3tay0steT9jPerkfeiEGHa6ZFhpwBVbe58RVSJtB2oZJRVa0U1TYioYgLunooTTXMkabJKydNhEvhMEtO5GxGO6DxtohDjdO6g9BhEDLbmqMAYgxHB6INS1/d9QN6XQoRlWajrgqplpKSKTWcsZFYNsKwLEIimKUECmSZMVKg1M/d0E5rmKPKEqRi1TmhewA5AXiBmXoIYUqYHmmaOCMIHxaBtjTEGpRSGB2Lw337jH7w3vbw3px7uIEfcmra5j8RnL5eFPv0Jc3fm3Ql1qRx+WwXaGIwRrGulmj0yKXnNfeu0bcNKyc8BTIxiguOYChGCRMbIGSQIZakAjMj76GMQEZja7X7egzy7Qr75az8R9bIQ3hi9U1QoVhBJxfQxUKBUS9NiWXDqLWZu4VQzUEVMuawL1TLncA+s5iO8ur7NU1GMxZTRGy2gmDGOJFAVIahqwEDIawtCb4O1rpRSGcOZMTltDEL8uZfplGdXiHhkCBsjnaSmc83XjkwuE7mYSSDMnEOF3jpq5XAL2FzAiMjobB6QMTgignceTAxEMq8RmJ47ULUZRAig5+ceoTIAJozReX/qeA8KWepCLUIfR9SUkdDx4HooqFqeBEA1I7Av/sDnqEV5ePsGCJaSoCGaJ8E9TRAO90tlH43eBtvW6M2pIsSAqoVSKqGJcXn4dPhGOAx3YjhqqZgQqJcFLDdEe38W6/kVMkY7nbJpOtG6GMfJOAJ9Vc0NLoLKbefDTCKRfGcEViuIpl9i5iHzUVSVuhZKTeUe5mrM3CXvoyRYOc/HkfeUUtKha1Yki6apjAj++F/9vffi2J9dIb07uW6SEZYEopoRFHApC721hD88Q08VnZhTmqUMhTUXS2bGEM4YjvcMa60odZqecdRupxnaRsPdTwWmBLUmaPn4zRkMpDl1CUqpGca9pzjrWRXyrX/25YiIGWFl+DuGU9eCIrlIQFkqEQMmIBgjiD5orREEdx/cM4ZTpklbyoTpiyakzpGp60wA05HLzF0gTWAewbhB3DHIWthtGUwMIugjeV77vqVfivfjSZ5VITZPgffMiMWgLIU3rx8yGeQWsnoItZT8LhJib/ue9YueylrWJSF2EgoRMiPvvc96R56euiy5szkBYGotCbuQySgBVss0dXH6NI93T9KhPJH3kyE866eIGb13ejgf3K+sd5eMbsSwaphKQidq9L1hZhmm+oAYaCQ6O2YWf2BaPhx8IOGMHhQx9q2fgGO0hkQWtEyVC2kCxTO8jhk37a1z7TvDB6qSGycy3BYPTEoS8A5k4D3I854QE+7WSrggaomwFssMOcsdtNZAhNH796yWTegKtczqD8hEJJ3822s7keN6KefvXbc9g4PTZHGeSBGhlJL1kog8FZJ5TZB+63vJN7/6t59dK897DtVAC5e7FVHNne5O264UM2KAqKGR5sY9sSirBSklcSkERFE1eutpzgM8ZvzLoPlALJXnR9RmwrVtuActOpWE9SNinpADXU7zNcZgWQpbD1Ru+YgANr+KPr/ZetZPOMpJy7JiZrQ9TwPTDywTv0KgWCHisPHCelmIPqjVbg5VhE4kl3dvANPs3U7GkeFFIvP03uYP0px1z8XuwQwq0kTVYuxtUEzoEwR9JyYLv9VenlGeTSH/+dd/KkpJJBcJSrEMRyPO9b3/8A6AMSIXXmDbdsosFoXebPe0cCdY2Hvnw/t73G/g41HjfWxXgmDRehaf0oEngaKP/SPRbCq7zSBkXjE/X+xpF+j7yLMpJMag1EKpGfkkzA4hnjszAu+HCQr2/VgEwUTRkZFP5o7BUlMlSymYGTZDYCvK/bIcnwpMpc/wtpbk+EYEdTFEAi1JllttwaiopLnMYlXWY4ZHki/IQMJqZW+N55bnjbLIiEhFuG7Xs0B0uSw3mzwB4CNoRaDvO/3YpRG0bZsmPxdT5jWO3SuaeUkqUN7Z9a03rmMDjpxkJqA6M3kG/iiCMhPWS0WRmYRC228n5o//xfNm7M+mEBFh3xvhTq3Gft241IXWHDUjNNHCbex4b5gJalnccITwznBHVE5Hvq4XxAqtd95er0hNkoSZsO07EonkttaS9IDgGIhxHZ3WjqwklSh2lIqnsw8HMUY/nH4wcFyDEUEtC7317/fITyLPZ7ImX0d15gBy+vMzlJXp1EUF0wyH15Kcqj6SjXjCsDPyEUnm4gf3dzMNvDna23JnCJuvvZthxxhZIpbIuorV8/fUCraU88Q8Pjnh+dlHMPFc8mwKMRF8RjgqRl0qHoKJYBowkVrhFkR5H7kwYTiCt0BCQA1TQ9wxBPGOhlBL5X5d2Ldsa1MtWVeHSUkt3K0VQfHuLKaIJbDZ9oZaQpbhAxOhLgU8ZhTmab5KKkwkT8261udaslyr57jon3ztJ+N63bm7v8OH8/DwlmpKHwMr6ZxlorvJNJy+RBK6UNOj2AckbOEx38At1+h9vANpdB8nfQgyFwFYahK1z2xbshLJJEhEJATPo9NWTedrsL3dGL1hRdi2z+AJ6WPgBB4ZBY0R9MgsuM9yqEfg7lS1jGgETI231yt1LUwWAsU0+bmiRwyFqLKuFT9Kq3EkeamkMZknB5aW/06TqCITYJRJSpLJhky0IC+XQORog2LG22vSVdUq4cGffu2nns2xP4tCTpaJpW8oNTEtfOAzBI4I3A/WYELpo43pUJk00VltRCi1zEphR2bdwt2THOGJm5kU1rXm73jgM3QtqhnyziTGJogpj/0Tk2g3X0/oPyOxfe/0AT4CM8OfMTh9HoWoUazgPdmCY2bExy6GYL9mda/vDX1kKrKomL7E1A4rdfvZCIrpOy8+7J0bUpWLm3zd29sOJw/Q2ninvhFH2VeOnhPh4WHDTLFiiYdFoGKs95enWKLvK8+iEFUlPFi10K4N3zuxOTEGl8uSYe+sp+8+sFpQU9ZLZWsNIkPRy6Wkww8H0dn6PAtL4gxvyd2qRp1UomNX26y39+ETHT4KV4+issfl81Iy659FMiuFbW+oKGYLow/G2Lirivjz+ZFnUUgRwyMYMfAx5hIcGbtQzTL5suRoxcysVfXEucasd5zB7Fy8aOPMBVrrp6O2orN3ZD5Y0XewJ3fO7D6/zwahQ0bvLItNR56feZi0L3z+A95er+d7+zPSgp5cIf/p174cNmkzHuAS7H2cYNQZFcmtjt37yD8tG//HSIbi24eNPZLPFRI4Tp+wi+mCu9C7cynJ3fLmVNPT2Xs4a62ICoOR/GBTFD8d/iHuzt4GWgqlJJXUZ95zd1fobTA8E0T34A9/+XnY8U+uEDFj65lh79cdKyu9N9SU1ju1GG0MVAwl8xVIfwFQreABD9ftDG8/Wjzdx+C6bakYU7Z9Z10Tz0rim2KiCb33nn6ALMuemboIS1keJX+3U3ED3tP/Hfc2WtJMPW6vPbU8uUJipClYZgJWizAi+PByyXBTDgMWkxmiucsvlVKMy1rnUmQbgknWLDJLn6wRhMtUwMHNqrVkjcUz8x+ekdthtpZimBVixBlCf9diiOB9pM8hnfy+d8YYqOU1T77XMyHxT6+QkBk+HhS0GdVYRl9j72zbTt87Ppxr9zPnaL3RZjm1lEqxSlFNbCuCui6pIOS046qp0KOPJOKW6xxUoKNhB0hy9XFvKtOSCm0bqMzM/SimTKrS3jqXSf6OEWzXneeioTy5Qnwk2AfHjgvu7xbu7+9xz8z6blkZvWNmk/YzT43kQqePgD4aPg5MKmXv4wQF09pko89x8s5lEib3KoMG/yimFcFwx6cCy0QQkkQHe2+oJD/LIybkkmDm3d3Ktj0PyPj0CnkU6Yz5MEULD9uYpQrPvMMOhklmEEf9IobD0S7Yk/uLB6M7ZjUDrpGv73vHRNm3kUlbVZYlCdjhwegQYngIhXlaECISxoFEC5ZaCGL2segkgcMyK5EeM0cZAZoFsSD4k3/+9FD8kyrkT7/2k+cN1mXJRaxJEz3Stohg27Md+dWbhyzx1sLDdT+vY5ZwyzsSeXKORWqts67lbJO+X1eKFVofrJcsSlnJlFMeG/yDyRjOUgqZrKYZ3Htn+KCWA/GNx2nLiY3dLvX0ZutpT8hsD9u3wVJq1srrQqkro+2sk/Lfx0Al+/sqGb1s+45ZSSjF0/TBrbOq1IpEP81HKYoP53JZ2drOte2I5s7vbbCUggTZL+KDHgPvkWhxOIby8LBni7VAj6CWcuZFILjrzNDJZyl2bhQr+n3ZKR9HnlQhHodtvlF6jq9WlxM9BSB8jr7g5FolmwSuWycQSjFUZNa4b/VylWx6vl6vZ5hairH3RyTu0884rTXsERd4hCf1h1tz6VIrqsr93WWCmUfYe/Ap09ct5Uao+NSfkLosLMVOfhMEozX6/nAisiLZTbW1zt2lEnPnret6noqYpuKA3ZdaePvmmlccR9KZRayIoJhRSjnrL5Ch7wFfHVHVYbq69znNIeGX8IT8D8CzLsuJEZQi9DFoIwOAg7QHt5bup5QnVciY3U1j33nz9sogF270SDNhwt6T/9T3Tq1LLhzpR5INMku582iZabYqeyd6Lkp4TvWxUm+lSIJ962kKpwqaZ3saJDBYlkJZlun0E3yM2SYRw1kuF7yNTCxNCZy1LpileUz8P6ZryW7ib/zi0w6xeVKF9K1ncjajJiOJ1BkGBzodclm/GzFdL7fX3G/swdYG67JSalbu3D1BQOGs3p2+qX80FI05bCDlRlZQihnX6za/F4Z3xkhVjj6IyYA/7uOyvFsp7K3T9v7kuNaTKeS//Prfjz06Q4MRwnKUTpuz1AXvThVj3xt3ltzeh+uV1Ywyi1RBZtYxAu+Z6InmKbsrC6jSWjr2Wm3mLOmgA+Fyv55hrJDcXB+BoJkkSmB2HL40qWpJcVVR3rx+y+vtimnCOqOP0891T/pS3ie4HCDk08ozcyPj5N0+tEYthYeHjddv35xkt3wXSftHKEUp9eA8Qt8aMX2LlEJEmrSPEtwArtftpBq1PdufRbPP8KhcHr0jejrzcrYsvH77FoC3bx/yZ2ul98Hd3SUTRdWJh6WDl4Or/ITyZArx0XNnzhpETulJ+2xrhZ6EZjzrGeEZyoYCjGwIrYVvv36dp4TgO6/eoKXAxMUYnculnmi8WpqVN9eNg8vikQ2cNht7VDTLxzPQGA4tBvueEAoBZVlyjOBaUBH2vvHm4e0ZNOQD5ijaY/rE8PRDZk+7p5/sakXLSckpZieKGh70vVNKYb2swERal5yUcMDyJ9PQcpSGmqYtn9fPjN5neTV3LxM6qUv6Jp1DBoCcYnMeI39UjMpEcB9zuukZJit3d3cstVBLZSn1UT0lm4CUpClBFsCc5AZ84xe/9GS268kUIlVZ60rb+2kO4Nb3fczCGrdaE61lvmKaU30C+ODukgqRbODpM4fYei5g7+PkY4mCVk1nHbd8AU5dfU8xrQx3ipUk6123c7PkpIk0ib2PR8+SPkMtW+tqqUmKiPhuVOFjyJMp5O31gcuHH7yzCF2hzbFJqoqasdYMS9d1Ze8jS7SWS9xbAwStC/RBm2asFqP1llgWudi1lKwSNj/Z72KC6sFuaZNylCLIzCEiWZKqrJeFa9uJERQR9knxqdVOiCZEOdb7Vjs5mkwlpww9IRb/JAr5r7/xD49c7rSp+95Zl/Uj7wwwmUQGz0bO6VBLzVEWb85QNCWTxXcf+HJZeP367fn9ddvOy+eXpCAdSVyxwkelmjJaos8iQuuDy3oM2oJlmTiZD6wYRQvXveVsFTPM9KwsPiWE8iQKMRHCg2vbcnZutURs20iMdbamhVasVl4/bLOjVjOH6Fk/j5G1iArZigDosvJ26+C80z6gqjDAlsplXWhHBu9OjGD0CVKRBS0AEcNH5ht3lwtv9gfqolgtNA/2NkCOuVv5OX0MCjE7vpKY6n4wWiaz8gnl6XyIKm3buW772a9RFnvMTzjrE4d0TyAQhNEHff78MSTR953h7yZ8Aacjf/za95J9a7cAI7Lyt1RLEHJuhAMxPmSMfn73mAkZkeF5a4Nt7/TulJpsld//ytMM0XwShYzeYTgazDlVR5bdKEvFx6D1HcUpgJFDysbws6oXEdzdrxQ1+ui3rqjIJpqckWHnMLLtYceKMVrjcnc5BwEQGTEtNYl67pHA4lGfH+829CxLRYU582TK3PWXdZn+IX3GXV2QEGpN0DM0ODmvT+RHnkQhhwN5c32bHUjXJBYctJvoPolqSfVRMkGrxahn+3L2Fh42upTC3bpmS8OM1ETnbESYNQun1HowjICcTZJtg6mIwe20lYOx+JG7T9z3qMMHVoyHN+mX+hgnXnaE1B6BVmMpZY4GkXPo2seVJ1GIR8LXo/sNUe2d9XJBVM+hYmPE6fTrJMd5jJNgPVrjuu+Z0W/7nOyQYe1HI5n2KMsPjsw9KTrD4+wbEYyHtmf4HTlW8IyV5kIfuEAmgmMCku/C66pHH8m7z26agwaKPU3G/rEV8ru/8CPhEbjkUAAtis6RewPnet3YRgfNBh4xY6AgCWUc5IPDVu/XxrV19n1wuVwo1bBSWCdEUSasniNelZCglmw3aJOZ2LvnJOtJ8H71diNGfkb2MgpmhaqG2tHyNggf6fg9x2o83gSlGlqUEWPmQk7b0w/5NJNPIU/m1HOSzsShHm/mgPu7u0fVQufhzQPLkrB2m317B2MdyY6prSWxrbdBfB9E9TCJ27Vl2Xbu3jJbCY6k7nFTzywJnhNK3f2dhTcV+nD+/DuvOC647dv8vJxa548Kbdu+n+SMr//Cx/9PZD62QooUFLJsW3NRlukLjoWQk0AQVM0Jcg9bEuF6H9xfVsYItCyTvQ5FmU6/0GPQFK4P26QIFUyV9XJHeHC5FISslbTWp21XCoK5sNSJ73pA5IyVbevJXvF2DmE+2ueGN4oV9tGx2QlcF6MuhlkmmOncyy2BjMC+R77zl5UnRMZm6Oh52VrLSfuHg9Dm5xQg93EWj1KC+7sLIPyf77xhreVMGveP9PWp6QyXcxEPwK88StAutZ6wzfIIkZUZxY3x3a3PJoURffat35iLaproMY+z9fxaip1QyzmF6GPIx1ZINt/r3FlB90k081sJVtQoyyUjJgkujyj9Vgp/9u1X87tJIOAWmkYEH35wh0WwVKG5J95kgo+Gj0EMJ8ZRzJtEuVlrH8C1DfZZ3nXPVuzLLG4d7dCI4DLnAQ+nR+BHr4rHnPF145BlJD4/w33C8R8/9H2isHcmfXP3lMl7Pex0qTkTq7d+sstLnVTQWS+xUvCett1MzrygzfaEzEXi7GtH0qYfnzUiUeUxmKQ4P+8t7+oR7BicKm8ju4IhnX7gWNE0u9NRq2oSx8d5hUxeRdm2HCFVaj1P/8eRj3WFb/zSj4dVO01LAHeXTKYeHm6Y1Ji7883DNU9Rm7VvzxrGuiZy+vrtG4Cz6FNrwvgn+S7Ov/K6Y5w71oSzoRPmaR3pwO/qeo4PzCvEvH6dYwJnvsEsZlnmO9npxUwEc7VKndNLz5mF79wSv/3Tf/1jOfaPp9LIbNvdqUuZNNLMO0oxRhvUWtjaPnd6MhlfvXqLTQbh3Qf3GcYOn34haK0xYtAGrHVF5vgXQViXgohnlh5B8/xvKMwKZnlS9t4RzRY2sdk7wkA0o7x9bvXep0+LoMy5W+5QrHJZlmz6IZNaT8ZGUpa6o+U2/DlP9MFTeZEXeZEXeZEXeZEXeZEXeZEXeZEXeZEXeZEX+ash/w8D7S8eR9trJQAAAABJRU5ErkJggg==;" parent="76" vertex="1">
                    <mxGeometry width="100" height="100" as="geometry"/>
                </mxCell>
                <mxCell id="75" value="&lt;font data-font-src=&quot;https://fonts.googleapis.com/css?family=Noto+Serif+JP&quot; face=&quot;Noto Serif JP&quot;&gt;飛&lt;/font&gt;" style="text;html=1;strokeColor=none;fillColor=none;align=center;verticalAlign=middle;whiteSpace=wrap;rounded=0;fontSize=42;" parent="76" vertex="1">
                    <mxGeometry width="100" height="100" as="geometry"/>
                </mxCell>
            </root>
        </mxGraphModel>
    </diagram>
</mxfile>